<?xml version="1.0" encoding="UTF-8" standalone="no"?>
<!-- Generator: Adobe Illustrator 25.4.1, SVG Export Plug-In . SVG Version: 6.00 Build 0)  -->

<svg
   version="1.1"
   id="Layer_1"
   x="0px"
   y="0px"
   viewBox="0 0 300 303.8"
   xml:space="preserve"
   sodipodi:docname="kuno-logo.svg"
   inkscape:version="1.3.2 (091e20ef0f, 2023-11-25)"
   width="300"
   height="303.79999"
   xmlns:inkscape="http://www.inkscape.org/namespaces/inkscape"
   xmlns:sodipodi="http://sodipodi.sourceforge.net/DTD/sodipodi-0.dtd"
   xmlns="http://www.w3.org/2000/svg"
   xmlns:svg="http://www.w3.org/2000/svg"><defs
   id="defs7" /><sodipodi:namedview
   id="namedview7"
   pagecolor="#ffffff"
   bordercolor="#000000"
   borderopacity="0.25"
   inkscape:showpageshadow="2"
   inkscape:pageopacity="0.0"
   inkscape:pagecheckerboard="0"
   inkscape:deskcolor="#d1d1d1"
   inkscape:zoom="0.90886999"
   inkscape:cx="411.5"
   inkscape:cy="151.8369"
   inkscape:window-width="1920"
   inkscape:window-height="1048"
   inkscape:window-x="0"
   inkscape:window-y="0"
   inkscape:window-maximized="1"
   inkscape:current-layer="Layer_1" />
<style
   type="text/css"
   id="style1">
	.st0{fill:#FF6600;}
</style>
<path
   class="st0"
   d="m 175.53575,292.30471 c -0.3,-0.6 0.2,-1 0.8,-1.3 4.6,-2.5 9,-5.3 13.3,-8.3 19.2,-13.5 34.1,-30.7 44.2,-51.9 5.9,-12.4 9.6,-25.3 11.2,-38.9 0.6,-4.8 1,-9.7 0.9,-14.6 -0.2,-12.6 -4.2,-23.7 -12.2,-33.5 -5.4,-6.7 -11.9,-12.1 -19.9,-15.4 -6.4,-2.6 -13,-3.3 -19.8,-2.9 -6,0.4 -12,1.9 -17.4,4.5 -10.6,5.2 -17.9,13.4 -22.6,24 -0.5,1.2 -1,2.4 -1.5,3.7 -0.2,0.4 -0.2,0.9 -0.8,0.9 -0.6,0 -0.7,-0.6 -0.9,-1 -1,-2.7 -2.1,-5.3 -3.5,-7.7 -6.9,-12.5 -17.4,-20.4 -31.2,-23.5 -17.800004,-4 -32.900004,1.6 -45.500004,14.4 -5.8,5.9 -8.9,13.4 -10.8,21.4 -2.6,11.4 -2.6,22.6 1.9,33.6 4.5,11.1 12.1,19.6 22.1,25.9 7.3,4.6 15.3,7.4 23.500004,9.9 9.3,2.9 18.7,5.2 27.9,8.4 6.7,2.3 13.3,4.9 19.3,8.7 9.7,6.1 16,14.7 19.3,25.6 0.1,0.2 0.1,0.4 0.2,0.6 0.1,0.4 0.1,0.8 -0.3,1.1 -0.5,0.3 -0.8,0 -1.1,-0.4 -0.9,-1.3 -1.9,-2.6 -2.8,-3.9 -8.1,-11.5 -19.1,-18.4 -32.7,-21.5 -7.4,-1.6 -14.9,-2.4 -22.4,-3.6 -8.1,-1.3 -16.200004,-2.7 -23.800004,-5.9 -9.1,-3.8 -16.9,-9.5 -23.4,-16.9 -5.7,-6.5 -10.5,-13.6 -13.8,-21.6 -2.7,-6.4 -4.3,-13.1 -5,-20.1 -0.6,-6.3 -0.3,-12.6 0.5,-18.9 0,-0.4 0,-0.7 0,-1.4 -0.7,1.6 -1,3.1 -1.4,4.6 -1.4,5.5 -2.1,11 -2,16.6 0.1,10.5 2.3,20.6 6.5,30.3 4.3,10 10.4,18.8 18.5,26.2 5.2,4.7 11,8.7 17.2,11.9 2,1 4,2 6,3 0.4,0.2 1,0.3 0.8,1 -0.2,0.6 -0.7,0.5 -1.2,0.5 -3.3,-0.1 -6.5,-0.5 -9.7,-1.4 -2.2,-0.6 -4.4,-1.3 -6.6,-2 -0.4,-0.1 -0.7,-0.2 -1.3,-0.3 0.7,1.4 1.7,2.3 2.6,3.3 13.5,15.2 29.400004,27 47.900004,35.3 0.9,0.4 2.6,1 2.6,1.5 0,0.4 -1,0.2 -1.6,0 -0.6,-0.1 -1,-0.2 -1.6,-0.3 -15.1,-2.9 -29.500004,-7.9 -42.900004,-15.5 -11.7,-6.6 -21.9,-14.9 -30.7,-25.1 -7.7,-9 -13.9,-18.9 -18.8,-29.7 -5.5,-12.3 -9,-25.1 -10.6,-38.5 -0.3,-2.6 -0.6,-5.2 -0.9,-7.8 -0.5,-6.2 -0.6,-12 0,-18.2 0.3,-2.8 0.6,-5.6 1,-8.4 2.5,-17.2 8.1,-33.3 16.5,-48.4 5.9,-10.600004 12.8,-20.600004 20.8,-29.700004 2.2,-2.6 4.6,-5 7,-7.4 0.2,-0.2 0.5,-0.7 0.9,-0.4 0.3,0.2 0,0.6 -0.1,0.9 0,0.1 -0.1,0.2 -0.2,0.3 -2.8,5.5 -4.9,11.3 -6.4,17.3 -1.6,6.4 -2.3,12.8 -1.2,19.400004 1.3,7.2 4.6,13.1 11.1,16.8 8.4,4.9 18.6,3.1 24.8,-4.5 3.2,-3.8 4.600004,-8.4 5.300004,-13.200004 0.7,-4.8 0.9,-9.7 1.7,-14.5 2.2,-13.4 6.4,-26.2 13.4,-37.9 6.2,-10.3 14.2,-18.8 24.5,-25.2 3.1,-1.9 6.3,-3.6 9.6,-5.2 0.3,-0.1 0.6,0.2 0.5,0.4 -0.7,1.5 -1.4,3 -2.1,4.5 -5.9,12.5 -8.5,25.7 -7.3,39.5 0.9,10.2 3.6,19.8 8.7,28.7 3.5,6 7.6,11.500004 13.4,15.400004 5,3.3 10.3,5.8 16.1,7.4 5.8,1.7 11.6,1.5 17.3,-0.5 6.9,-2.3 11.6,-7 14.5,-13.600004 3.4,-7.9 3.5,-15.7 -0.4,-23.5 -1.4,-2.7 -3.2,-5.1 -5.3,-7.2 -0.3,-0.2 -0.6,-0.5 -0.5,-0.9 0.2,-0.4 0.6,-0.3 1,-0.2 1.3,0.1 2.5,0.3 3.8,0.5 9.9,1.7 18.1,6.2 24.2,14.2 5.3,7 7.4,14.9 6.7,23.600004 -0.4,4.5 -1.4,8.8 -2.3,13.2 -0.8,4.1 -1.6,8.2 -0.4,12.3 3.9,14.2 19,17.3 29.2,12 6.5,-3.4 9.6,-9.2 10.8,-16.1 0.1,-0.6 0.1,-1.2 0.9,-1.2 0.2,0 0.4,0.1 0.5,0.2 0.8,0.7 1,1.8 1.3,2.8 0.9,4 1.4,7 1.8,12.1 0.3,10.9 0.6,18.4 -0.2,28.8 -0.1,1.9 -0.3,4.6 -0.4,6.3 -0.5,7 -2,14 -3.7,20.8 -2.8,11.4 -7.3,22.2 -13.1,32.5 -5.3,9.4 -11.5,18.1 -18.8,26 -9.6,10.2 -20.7,18.3 -33.2,24.5 -9.5,4.7 -19.4,8.2 -29.7,10.7 -2.6,0.6 -5.2,1.2 -7.8,1.9 -0.2,0.3 -0.6,0.3 -0.7,0.1 z"
   id="path1"
   inkscape:export-filename="kuno-logo.svg"
   inkscape:export-xdpi="96"
   inkscape:export-ydpi="96" /><path
   class="st0"
   d="m 274.63575,90.804706 c -0.1,6.5 -2.6,11.600004 -7.1,15.700004 -2.8,2.5 -5.9,4.5 -9.3,6.1 -0.3,0.2 -0.8,0.5 -1.1,0.2 -0.4,-0.4 0.1,-0.7 0.3,-1 2.4,-4.3 2.2,-8.8 0.9,-13.400004 -0.6,-2 -1.4,-3.9 -2.1,-5.9 -3,-9.2 -3.2,-18.3 0.3,-27.4 1.4,-3.7 3.7,-6.8 6.3,-9.7 0.3,-0.3 0.6,-0.8 1.1,-0.6 0.4,0.2 0.3,0.7 0.3,1.1 0.1,3.6 0.4,7.3 1.2,10.8 0.9,3.8 2.3,7.3 4.5,10.5 2.9,4.3 4.6,8.9 4.7,13.6 z"
   id="path2" />
</svg>
