<svg viewBox="0 0 333 333" fill="none"
  xmlns="http://www.w3.org/2000/svg">
  <path d="M294.771 85.872C294.083 79.1329 291.863 73.0448 287.576 67.7225C283.787 63.0128 278.926 59.6433 274.333 55.8525C272.036 53.9763 265.951 48.8837 265.185 46.012C264.266 42.5276 265.683 38.9666 268.859 37.8179C273.644 36.2097 281.643 36.248 286.274 36.5543C290.217 36.8606 294.274 35.4822 294.427 33.874C294.58 32.2658 292.245 29.8918 289.145 29.1643C286.695 28.59 282.945 27.7093 280.686 26.216C276.667 23.4974 272.572 18.5197 266.984 17.4093C259.023 15.8394 253.473 18.826 250.87 25.6799C246.737 35.4822 249.416 48.0414 258.104 57.231C262.008 61.3663 266.563 64.9273 270.926 68.6414C274.141 71.3983 276.974 74.4232 279.691 77.7928C286.963 86.8675 279.27 103.524 277.433 105.438C271.003 112.101 265.415 113.326 254.315 112.867C243.407 112.407 215.122 97.7802 200.156 97.3207C163.106 96.172 137.385 113.288 128.697 117.729C115.684 124.392 97.1586 124.813 96.5844 125.004C88.2022 125.655 70.8255 126.306 62.2136 129.293C50.0805 132.663 43.5355 138.215 39.0957 150.621C37.7178 155.981 37.4498 160.844 39.4019 163.792C43.6504 170.225 55.0945 175.586 60.2999 178.534C62.9791 180.066 68.2611 178.151 69.2945 177.424C75.1123 173.48 80.2411 170.378 87.1306 169.383C88.585 169.153 98.3068 167.43 103.206 171.029C106.766 173.633 109.828 175.203 113.846 177.041C121.195 180.372 137.385 184.584 137.692 184.66C139.873 185.235 142.667 186.345 142.667 188.298C142.667 191.055 116.947 212.574 115.53 213.11C109.062 215.752 105.311 220.002 104.125 226.129C103.742 228.12 102.862 230.187 101.752 231.834C97.5796 237.884 79.0928 264.151 74.1937 271.349C71.8589 274.719 69.4476 276.404 66.1177 276.94C61.3333 277.705 57.7355 277.82 55.7069 281.228C54.4439 283.411 55.2476 287.661 56.0897 290.418C57.0465 293.558 54.4439 297.463 54.2525 297.923C51.956 302.403 50.9991 306.691 51.3436 311.018C51.4584 312.779 51.5732 316.876 54.4821 316.991C57.391 317.144 58.1565 315.268 58.501 314.579C58.922 313.736 60.5296 310.252 60.9889 309.41C62.8643 305.925 70.0217 298.42 70.8255 297.54C73.3899 294.706 111.665 241.981 111.665 241.981C113.77 239.224 115.952 236.39 119.511 235.012C124.449 233.097 127.74 229.154 128.697 223.946C128.927 222.797 144.198 211.081 150.705 206.141C153.078 204.342 167.469 198.56 167.699 198.636C167.699 198.751 154.533 218.586 150.437 229.115C149.786 230.8 148.715 236.544 149.901 239.454C151.738 243.934 155.681 245.886 160.159 244.546C161.537 244.125 162.762 243.436 163.948 242.785C164.484 242.479 165.02 242.211 165.556 241.943C166.092 241.674 166.589 241.406 167.125 241.138C168.35 240.487 169.536 239.875 170.723 239.492C175.124 238.037 179.564 236.658 184.004 235.28L192.999 232.485C199.276 230.532 205.553 228.579 211.83 226.665C213.208 226.244 214.547 225.746 216.27 225.784C217.227 225.784 218.26 226.167 218.605 227.584C218.605 227.66 219.332 231.949 221.973 233.672C223.312 234.553 226.183 235.242 228.326 235.165C230.202 235.089 232.575 235.625 233.8 236.697L235.369 238.037C236.517 238.994 237.933 239.53 238.89 239.798C239.885 240.066 241.723 240.066 242.794 238.956C243.942 237.731 243.521 235.739 243.368 235.127C243.139 234.284 242.679 233.634 242.335 233.059L241.378 231.566C240.459 230.111 239.579 228.656 238.622 227.201C235.981 223.18 233.379 219.198 230.699 215.216C227.905 211.081 223.58 209.434 217.916 210.315C215.734 210.659 167.852 225.516 167.508 225.593C170.072 220.883 185.42 199.67 189.707 196.99C192.884 195.114 194.223 193.314 200.003 192.319C211.294 190.404 235.79 184.737 241.876 180.334C253.703 171.757 254.659 152.267 254.468 148.361C254.238 144.456 255.501 141.776 258.908 139.976C260.592 139.095 278.811 129.025 287.729 114.168C293.087 105.477 295.843 96.172 294.771 85.872Z" fill="currentColor"/>
</svg>
