<svg viewBox="0 0 205 219" fill="none"
  xmlns="http://www.w3.org/2000/svg">
  <path d="M185.92 98.79V185.79C185.92 189.06 183.27 191.71 180 191.71H108.88C105.61 191.71 102.96 189.06 102.96 185.79V169.59C103.29 149.72 105.39 130.7 109.8 122.05C112.45 116.85 116.8 114.01 121.81 112.5C131.27 109.66 147.87 111.6 154.92 111.27C154.92 111.27 176.21 112.12 176.21 100.06C176.21 90.36 166.7 91.12 166.7 91.12C156.21 91.39 148.23 90.68 143.05 88.64C134.38 85.23 134.1 78.98 134.06 76.89C133.64 52.74 98.03 49.85 66.66 55.83C32.37 62.36 67.04 111.51 67.04 177.13V185.89C66.98 189.11 64.37 191.71 61.14 191.71H25.92C22.65 191.71 20 189.06 20 185.79V35.33C20 32.06 22.65 29.41 25.92 29.41H59.03C62.3 29.41 64.95 32.06 64.95 35.33C64.95 40.19 70.41 42.9 74.36 40.07C86.27 31.54 101.55 27 118.65 27C156.96 27 185.93 49.33 185.93 98.8L185.92 98.79ZM122.33 81.13C122.33 74.13 116.66 68.46 109.66 68.46C102.66 68.46 96.99 74.14 96.99 81.13C96.99 88.12 102.66 93.81 109.66 93.81C116.66 93.81 122.33 88.13 122.33 81.13Z" fill="currentColor"/>
</svg>
