<svg viewBox="0 0 204 205" fill="none"
  xmlns="http://www.w3.org/2000/svg">
  <path d="M19.626 51.8096L20.1592 51.8506L20.3564 51.8711L20.5322 51.9648C21.9434 52.7247 23.0545 53.5692 23.9668 54.6172C24.8769 55.6626 25.5544 56.8711 26.1445 58.3164H26.1436L26.6562 59.5596L26.6592 59.5645L27.1992 60.9004L27.7734 62.2979L29.583 66.7314L31.3721 71.1016L32.5293 73.9326L33.7568 76.9102C34.1704 77.8985 34.5904 78.8821 35.0225 79.8604V79.8613L35.4229 80.7686L36.4463 83.042L36.4619 83.0752L36.4746 83.1094C37.3332 85.4379 37.5556 87.7005 36.999 90.1641L36.9707 90.291L36.9102 90.4062C36.4277 91.331 35.8885 92.1086 35.1758 92.7441C34.5487 93.3033 33.8248 93.72 32.9619 94.0459L32.583 94.1797L32.4688 94.2178L32.3486 94.2275C30.8617 94.3494 29.6679 94.3748 28.5137 94.0674C27.3435 93.7557 26.3092 93.1295 25.0674 92.1328L24.9375 92.0283L24.8477 91.8877C24.0142 90.571 23.4705 89.1897 22.9512 87.8496L22.4893 86.7207V86.7188C22.0063 85.5323 21.5354 84.3426 21.0674 83.1572L20.0889 80.7412V80.7402C19.6369 79.6251 19.1889 78.5087 18.7432 77.3916C17.689 80.6685 17.5017 81.5272 16.4619 86.3135C16.3857 86.7585 16.3853 86.7645 16.3057 87.2295C14.7953 96.367 14.8264 106.013 16.2109 115.195L16.3486 116.082L16.3506 116.094L16.5107 117.164L16.6396 117.973C19.3472 134.382 27.347 149.061 38.4678 161.319L39.5713 162.518L39.5742 162.52L40.8057 163.845L41.3867 164.448C53.6511 177.035 70.6064 185.094 87.8486 188.043L89.5625 188.336C103.271 190.301 117.54 189.093 130.539 184.333L130.566 184.323C132.326 183.737 133.988 183.501 135.844 183.759L136.218 183.816L136.39 183.847L136.541 183.933C138.151 184.845 139.248 186.031 140.225 187.404L140.637 188.004L140.776 188.214L140.801 188.465C140.922 189.753 140.907 190.873 140.66 191.971C140.413 193.072 139.945 194.091 139.239 195.2L139.162 195.322L139.054 195.417C136.464 197.676 132.981 198.961 129.479 199.829C125.997 200.692 122.279 201.188 119.33 201.751L119.329 201.75C118.927 201.829 118.525 201.908 118.111 201.989L118.105 201.99C93.5969 206.631 67.1321 200.335 46.5273 186.612L46.5166 186.605V186.604C24.1113 171.284 8.08685 148.129 2.93262 121.291L2.92969 121.277C2.69615 119.963 2.49031 118.648 2.2998 117.332L2.0918 115.956C2.02021 115.497 1.94687 115.038 1.87305 114.576L1.87109 114.564C0.566669 105.767 0.779333 96.6817 2.16016 87.9385C2.29689 86.7494 2.43315 85.5602 2.56934 84.3711L2.57031 84.3613L2.57227 84.3516C2.97173 81.3775 3.65134 78.5965 4.52441 75.7598C4.82886 74.7608 5.10942 73.7574 5.35645 72.749L5.35742 72.7441L5.55078 71.9971C6.54864 68.2794 7.98185 64.8149 9.4834 61.3418C9.70185 60.8291 9.92044 60.3163 10.1455 59.7881L10.1514 59.7754L10.5029 58.9912C11.3365 57.1635 12.2796 55.3645 13.6055 54.0322C15.0882 52.5424 17.01 51.6706 19.626 51.8096Z" fill="#F68C22" stroke="#F68C22" stroke-width="2"/>
  <path d="M103.215 1L104.115 1.00391C108.605 1.04361 112.949 1.4117 117.402 2.07715H117.403L118.761 2.26172L118.764 2.2627L119.653 2.3916C138.318 5.20841 156.1 14.2933 169.843 27.0811L170.597 27.7666C171.102 28.2202 171.614 28.6667 172.132 29.1104L172.913 29.7744L172.921 29.7803L172.929 29.7871C182.307 38.0099 189.072 49.3356 194.244 60.3965H194.245L194.985 61.9463L194.99 61.9551L194.994 61.9639C200.763 74.6395 203.01 88.2395 203.001 102.006L203 103.272V103.275C202.948 118.27 199.64 132.217 193.431 145.829L193.43 145.828C193.271 146.182 193.113 146.537 192.949 146.901L192.942 146.916L192.727 147.348C192.233 148.302 191.705 149.11 191.033 149.819C190.263 150.633 189.345 151.276 188.163 151.881L188.058 151.935L187.942 151.963C187.415 152.09 187.075 152.173 186.742 152.215C186.402 152.257 186.077 152.255 185.593 152.254C185.269 152.264 184.946 152.275 184.612 152.285L184.465 152.29L184.322 152.252C182.061 151.645 180.41 150.168 179.276 148.27L179.25 148.226L179.228 148.179C178.727 147.101 178.283 146.018 177.858 144.928V144.927C177.699 144.537 177.538 144.143 177.374 143.741L177.373 143.739C176.851 142.455 176.339 141.167 175.83 139.884V139.883C175.477 139.009 175.122 138.136 174.768 137.263V137.262C173.907 135.139 173.054 133.015 172.204 130.89V130.889C171.383 128.839 170.548 126.794 169.711 124.747V124.746C169.36 123.888 169.011 123.029 168.665 122.169L168.655 122.146L168.647 122.122C168.341 121.233 168.214 120.874 168.05 120.546C167.968 120.383 167.875 120.224 167.738 120.012L167.159 119.153L167.01 118.936L166.988 118.673C166.896 117.582 166.83 116.654 166.938 115.734C167.05 114.787 167.34 113.894 167.886 112.822L167.94 112.715L168.019 112.624C169.185 111.269 169.973 110.382 171.857 109.67L172.007 109.613L172.167 109.606C174.199 109.518 175.924 109.658 177.775 110.783L178.147 111.021L178.211 111.064L178.267 111.115C179.801 112.529 180.393 113.735 181.135 115.506L181.497 116.359V116.361L182.243 118.152L182.802 119.496L183.369 120.84L183.371 120.844L183.793 121.858C184.514 123.617 185.181 125.383 185.758 127.206C186.072 125.797 186.393 124.386 186.735 122.979C189.651 110.808 190.061 98.1961 187.665 85.9082V85.9062C187.587 85.503 187.508 85.1 187.428 84.6846V84.6836C184.857 71.8812 179.515 59.49 171.426 49.2383L171.424 49.2354C171.069 48.7831 170.714 48.331 170.349 47.8652L169.071 46.29C166.078 42.6435 162.98 39.2099 159.366 36.2422L159.359 36.2363L159.352 36.2305C158.863 35.8133 158.375 35.3957 157.887 34.9785L157.246 34.4463C150.599 28.9842 143.14 24.7453 135.19 21.3633L135.186 21.3604C134.888 21.2318 134.59 21.1031 134.283 20.9707V20.9717C128.928 18.6967 123.335 17.3666 117.55 16.2598L117.542 16.2578C117.097 16.1694 116.652 16.0813 116.194 15.9902V15.9893C111.616 15.175 107.046 15.1514 102.302 15.1621H101.01L101.011 15.1631C92.1385 15.1875 84.0461 16.2123 75.6689 19.0732L75.6611 19.0762C73.1219 19.921 70.6305 20.4126 67.8232 20.0244L67.623 19.9971L67.4482 19.8926C66.5426 19.353 65.816 18.8025 65.21 18.1113C64.6028 17.4189 64.1556 16.6295 63.751 15.6631L63.7031 15.5498L63.6846 15.4287C63.3543 13.2817 63.3871 11.3709 64.458 9.27539L64.5479 9.09863L64.6992 8.96973C67.4696 6.60483 71.2557 5.19244 75.0713 4.21875C78.4081 3.36726 81.8979 2.82321 84.8584 2.30566L86.0928 2.08398C86.5023 2.00443 86.9121 1.92474 87.334 1.84277L87.3418 1.8418L87.3506 1.83984C91.5666 1.09462 95.6635 0.983659 99.8555 1.00586L101.53 1.00684C102.09 1.00547 102.65 1.003 103.211 1H103.215Z" fill="#F68C22" stroke="#F68C22" stroke-width="2"/>
  <path d="M41.3057 12.0986C47.2015 12.122 52.0194 14.4678 56.4453 18.6299C60.4363 22.7596 62.4985 27.7778 62.7002 33.5166C62.5526 39.6189 60.2165 45.045 55.9863 49.502C54.7102 50.6781 53.3689 51.6519 51.8535 52.5586L51.1846 52.9492L51.1777 52.9531C50.8722 53.1279 50.566 53.3018 50.252 53.4814C45.7731 55.8706 40.5335 56.0886 35.1973 54.9824C29.2255 53.1161 24.497 49.526 21.4268 44.1641C18.9529 38.4979 18.137 31.679 20.1084 26.0791C22.9648 19.8807 27.3783 15.5904 33.6445 13.0029C35.799 12.264 37.7076 12.0842 40.1943 12.1094H40.2471C40.5965 12.1058 40.9461 12.1023 41.3057 12.0986Z" fill="#FEFDFB" stroke="#F68C22" stroke-width="5.16556"/>
  <path d="M155.217 149.87C161.145 147.187 169.311 148.273 175.047 151.665C180.058 155.1 183.643 159.561 184.863 165.261C185.837 172.366 184.702 178.375 180.517 183.971C178.315 186.565 175.938 188.411 172.876 190.034L172.854 190.046L172.832 190.058C172.499 190.243 172.165 190.427 171.823 190.617C169.716 191.567 167.585 191.752 164.901 191.802L163.703 191.816H163.696C163.061 191.823 163.047 191.823 162.426 191.83C156.975 191.756 152.09 189.68 148.039 185.887C145.421 183.039 143.845 179.768 142.524 175.876L142.262 175.083L142.256 175.063L142.022 174.364C141.986 174.255 141.949 174.145 141.898 173.993C141.549 166.512 142.712 161.041 147.451 155.418C149.419 153.353 151.545 151.844 154.164 150.455L154.186 150.443L154.208 150.432C154.542 150.246 154.875 150.06 155.217 149.87Z" fill="#FEFDFB" stroke="#F68C22" stroke-width="5.16556"/>
  <path d="M122.538 55.1633C123.313 55.4705 124.089 55.7777 124.888 56.0941C130.964 58.8015 135.354 62.8461 139.973 67.5134C140.406 67.9301 140.839 68.3468 141.284 68.7762C151.311 79.2639 152.67 92.5356 152.523 106.29C152.323 108.196 152.323 108.196 150.87 113.281C143.678 113.281 136.486 113.281 129.076 113.281C128.837 102.733 128.597 92.1844 128.35 81.3164C120.438 89.2277 112.527 97.139 104.376 105.29C101.975 104.09 100.865 103.412 99.0731 101.605C98.6224 101.154 98.1717 100.703 97.7074 100.239C97.2298 99.7537 96.7522 99.2686 96.2601 98.7687C95.7643 98.2709 95.2686 97.7731 94.7578 97.2602C93.1779 95.6722 91.603 94.0791 90.0283 92.4859C88.9569 91.4072 87.8852 90.3288 86.8131 89.2508C84.1874 86.6104 81.5688 83.9633 78.9496 81.3164C78.7099 91.625 78.4701 101.934 78.2231 112.555C71.031 112.555 63.839 112.555 56.4289 112.555C54.7915 107.642 54.7915 107.642 54.783 105.216C54.7799 104.685 54.7767 104.154 54.7734 103.606C54.7803 103.053 54.7873 102.5 54.7944 101.93C54.8003 101.351 54.8063 100.771 54.8125 100.174C55.0708 86.4127 59.897 75.3772 69.233 65.2431C75.2258 59.5211 82.6027 55.2133 90.5732 52.9839C91.4666 52.7273 92.36 52.4707 93.2804 52.2064C103.2 49.7839 113.237 51.3787 122.538 55.1633Z" fill="#F68C22"/>
  <path d="M86.9341 100.934C92.6551 105.837 92.6551 105.837 94.8998 108.102C95.6127 108.818 95.6127 108.818 96.34 109.549C97.0557 110.274 97.0557 110.274 97.7858 111.013C98.2826 111.513 98.7794 112.014 99.2913 112.529C100.501 113.747 101.71 114.968 102.917 116.19C105.507 115.093 107.125 113.584 109.075 111.575C109.681 110.957 110.288 110.339 110.913 109.702C111.541 109.056 112.168 108.41 112.815 107.744C114.062 106.46 115.312 105.179 116.566 103.902C117.118 103.333 117.671 102.764 118.24 102.178C119.625 100.934 119.625 100.934 121.078 100.934C121.078 107.406 121.078 113.879 121.078 120.548C129.949 120.548 138.819 120.548 147.958 120.548C145.713 129.526 138.106 137.219 130.335 141.913C117.808 149.054 104.667 151.786 90.4973 148.087C77.3319 144.272 66.9389 135.164 60.0773 123.503C59.3281 122.001 59.3281 122.001 59.3281 120.548C68.4381 120.548 77.5481 120.548 86.9341 120.548C86.9341 114.075 86.9341 107.603 86.9341 100.934Z" fill="#F68C22"/>
  <path d="M171.123 155.424C175.451 157.996 178.146 161.757 179.723 166.489C180.132 172.021 179.524 176.599 175.966 181.046C172.964 184.368 169.168 186.21 164.745 186.891C160.339 187.08 156.248 185.562 152.851 182.776C149.061 179.186 147.254 174.93 147.086 169.717C147.234 165.212 148.989 161.805 152.017 158.506C157.246 153.799 164.598 152.428 171.123 155.424Z" fill="#FEFDFB"/>
  <path d="M48.0863 18.8215C51.7779 21.1451 54.4618 23.9618 56.2144 27.9566C56.4178 28.3925 56.6212 28.8283 56.8307 29.2774C57.866 34.0773 57.1297 38.4091 54.6552 42.6334C51.9201 46.5715 48.1877 48.9297 43.5353 50.0277C38.5551 50.5945 34.5271 49.5229 30.4526 46.6451C27.3991 44.0819 25.2135 40.791 24.5955 36.815C24.2094 31.9607 24.5727 27.7541 27.569 23.7303C32.6613 18.0472 40.9164 15.3877 48.0863 18.8215Z" fill="#FEFDFB"/>
  <path d="M156.247 160.854C157.519 160.803 158.79 160.766 160.062 160.736C160.42 160.721 160.777 160.705 161.145 160.689C163.656 160.645 165.057 161.058 167.048 162.732C167.798 164.234 167.757 165.799 167.517 167.428C166.578 168.837 166.578 168.837 165.639 169.776C166.294 171.871 167.462 173.36 168.812 175.05C169.396 175.881 169.396 175.881 169.396 176.82C167.078 177.275 167.078 177.275 165.639 176.82C164.51 175.565 163.642 174.265 162.755 172.83C161.927 171.454 161.927 171.454 160.004 171.185C160.004 173.199 160.004 175.214 160.004 177.29C158.919 177.29 157.834 177.29 156.717 177.29C156.357 171.802 156.184 166.352 156.247 160.854Z" fill="#F68C22"/>
  <path d="M33.2109 25.6069C35.5273 25.1519 35.5273 25.1519 36.9677 25.6069C38.4557 27.1828 39.5974 28.926 40.7245 30.7724C41.6543 29.0678 42.5841 27.3632 43.5421 25.6069C44.7818 25.6069 46.0215 25.6069 47.2988 25.6069C46.5033 27.7799 45.3583 29.5601 44.0795 31.4768C43.4 32.9612 43.4496 33.4725 44.0116 34.9988C44.6994 36.096 45.3909 37.1282 46.1542 38.1686C48.238 41.0587 48.238 41.0587 48.238 41.5731C46.7248 41.9128 45.5098 42.0164 44.0116 41.5731C42.627 40.0003 41.6662 38.2729 40.7245 36.4076C40.4357 36.8407 40.4357 36.8407 40.1411 37.2826C39.0833 38.8693 38.0255 40.456 36.9677 42.0427C36.0542 42.1803 36.0542 42.1803 35.0306 42.1308C34.4301 42.1017 33.8296 42.0727 33.2109 42.0427C33.4712 41.5954 33.7315 41.148 33.9997 40.6871C34.3434 40.0922 34.6871 39.4973 35.0306 38.9023C35.2876 38.4615 35.2876 38.4615 35.5497 38.0117C35.883 37.4331 36.2096 36.8506 36.5291 36.2643C36.8961 35.5983 37.2952 34.9501 37.7015 34.3072C37.9972 32.5987 37.2845 31.8157 36.3202 30.4331C36.0883 30.1189 35.8565 29.8047 35.6176 29.481C33.2109 26.0913 33.2109 26.0913 33.2109 25.6069Z" fill="#F68C22"/>
  <path d="M137.903 138.779C139.699 139.366 140.291 139.963 141.22 141.597C141.145 143.204 140.955 143.74 139.811 144.884C136.928 144.779 136.928 144.779 135.614 143.593C135.015 142.325 134.902 141.574 135.115 140.188C135.923 138.841 136.323 138.779 137.903 138.779Z" fill="#F68C22"/>
  <path d="M130.888 132.674C132.717 132.714 133.496 132.949 134.851 134.2C135.584 135.491 135.584 135.491 135.555 136.753C135.115 137.839 135.115 137.839 133.706 138.779C132.039 138.736 131.464 138.409 130.243 137.252C129.48 135.961 129.48 135.961 129.538 134.699C129.949 133.613 129.949 133.613 130.888 132.674Z" fill="#F68C22"/>
  <path d="M71.129 65.3457C72.6552 65.5218 72.6552 65.5218 74.0346 66.549C75.0032 67.8698 75.0032 67.8698 74.9738 69.1318C74.5336 70.2178 74.5336 70.2178 73.5944 71.157C72.2443 71.3624 72.2443 71.3624 70.7768 71.157C69.6322 70.1591 69.6322 70.1591 68.8984 68.809C69.0821 65.6248 69.0821 65.6248 71.129 65.3457Z" fill="#F68C22"/>
  <path d="M66.0796 58.9769C67.4884 59.4172 67.4884 59.4172 68.3689 60.2096C69.0467 61.6029 69.0636 62.582 68.8972 64.1131C67.958 65.0523 67.958 65.0523 66.872 65.2578C65.0408 64.9597 64.3819 64.1442 63.262 62.7043C62.9945 61.3001 63.0579 60.6966 63.7903 59.4759C64.6708 58.9476 64.6708 58.9476 66.0796 58.9769Z" fill="#F68C22"/>
  <path d="M60.3817 53.1074C61.8492 53.3129 61.8492 53.3129 62.9938 54.3401C63.7276 55.6609 63.7276 55.6609 63.6982 56.9229C63.258 58.0088 63.258 58.0088 61.8492 58.948C60.557 58.8511 59.7351 58.6316 58.6501 57.9208C57.8301 56.6693 57.9371 55.7121 58.0924 54.2521C59.0316 53.3129 59.0316 53.3129 60.3817 53.1074Z" fill="#F68C22"/>
  <path d="M143.266 145.178C144.499 145.354 144.499 145.354 145.585 146.146C146.377 147.232 146.377 147.232 146.583 148.436C146.377 149.58 146.377 149.58 145.82 150.431C144.632 151.209 144.014 151.261 142.621 150.989C141.505 149.962 141.505 149.962 140.742 148.641C140.831 146.734 141.227 145.5 143.266 145.178Z" fill="#F68C22"/>
  <path d="M126.628 126.893C128.067 127.039 128.067 127.039 128.947 127.568C129.713 128.844 129.63 129.808 129.475 131.266C128.536 132.205 128.536 132.205 127.157 132.381C125.719 132.205 125.719 132.205 124.838 131.412C124.222 130.145 124.127 129.371 124.31 127.979C125.249 127.039 125.249 127.039 126.628 126.893Z" fill="#F68C22"/>
  <path d="M159.531 163.669C162.532 163.499 162.532 163.499 163.758 164.226C164.227 165.078 164.227 165.078 164.198 166.281C163.758 167.426 163.758 167.426 162.936 168.042C161.879 168.365 161.879 168.365 159.531 168.365C159.531 166.815 159.531 165.265 159.531 163.669Z" fill="#FEFDFB"/>
</svg>
