<?xml version="1.0" encoding="UTF-8"?>
<svg id="_ÎÓÈ_1" data-name="—ÎÓÈ_1" xmlns="http://www.w3.org/2000/svg" viewBox="0 0 1958.39 1295.01">
    <defs>
        <style>
            .cls-1 {
            fill: #fc346c;
            }

            .cls-2 {
            fill: #fff;
            }

            .cls-3 {
            fill: #fccc6c;
            }

            .cls-4 {
            fill: #dce5f7;
            }

            .cls-5 {
            fill: #240448;
            }

            .cls-6 {
            fill: #44d4f4;
            }
        </style>
    </defs>
    <g>
        <g>
            <g>
                <path class="cls-4" d="M176.65,1085.54V185.55c0-16.41,13.35-29.75,29.77-29.75H1751.98c16.41,0,29.75,13.35,29.75,29.75v899.99H176.65Z"/>
                <path class="cls-6" d="M1751.98,131.22H206.41c-30,0-54.34,24.32-54.34,54.32v924.57H1806.31V185.54c0-30-24.32-54.32-54.33-54.32Zm5.18,929.74H201.22V185.54c0-2.85,2.33-5.17,5.19-5.17H1751.98c2.86,0,5.18,2.32,5.18,5.17v875.42Z"/>
                <path class="cls-3" d="M1345.56,180.37h406.44c2.85,0,5.17,2.32,5.17,5.17v870.26c0,2.85-2.32,5.17-5.17,5.17h-406.44c-2.85,0-5.17-2.32-5.17-5.17V185.53c0-2.85,2.32-5.17,5.17-5.17Z"/>
            </g>
            <path class="cls-5" d="M1828.68,976.11c-1.27,0-2.34-.99-2.42-2.28l-49.56-836.32c-1.69-28.57-26.33-50.44-54.88-48.74l-217,12.86c-1.35,.08-2.48-.94-2.56-2.27s.94-2.48,2.27-2.56l217-12.86c31.25-1.84,58.15,22.05,60.01,53.29l49.56,836.32c.08,1.33-.94,2.48-2.27,2.56-.05,0-.1,0-.15,0Z"/>
            <path class="cls-5" d="M159.98,781.06c-1.27,0-2.34-.99-2.41-2.28L125.36,235.38c-.9-15.13,4.15-29.71,14.22-41.04,10.07-11.33,23.95-18.07,39.08-18.96L1435.86,100.87c1.34-.07,2.48,.94,2.56,2.27s-.94,2.48-2.27,2.56L178.95,180.21c-13.84,.82-26.54,6.98-35.75,17.35-9.21,10.37-13.83,23.7-13.01,37.54l32.2,543.4c.08,1.34-.94,2.48-2.27,2.56-.05,0-.1,0-.15,0Z"/>
            <path class="cls-5" d="M174.43,1024.81c-1.27,0-2.34-.99-2.41-2.28l-11.79-198.93c-.08-1.33,.94-2.48,2.27-2.56,1.32-.07,2.48,.94,2.56,2.27l11.79,198.93c.08,1.33-.94,2.48-2.27,2.56-.05,0-.1,0-.15,0Z"/>
            <path class="cls-6" d="M1094.11,1235.41h801.63c34.6,0,62.65-28.05,62.65-62.65h0c0-34.6-28.05-62.65-62.65-62.65H62.65c-34.6,0-62.65,28.05-62.65,62.65H0c0,34.6,28.05,62.65,62.65,62.65H1094.11Z"/>
        </g>
        <circle class="cls-2" cx="1425.99" cy="273.03" r="36.5"/>
        <circle class="cls-6" cx="1425.99" cy="385.95" r="36.5"/>
        <circle class="cls-2" cx="1425.99" cy="498.87" r="36.5"/>
        <circle class="cls-1" cx="1425.99" cy="611.79" r="36.5"/>
        <circle class="cls-2" cx="1425.99" cy="724.71" r="36.5"/>
        <circle class="cls-5" cx="1425.99" cy="837.63" r="36.5"/>
        <circle class="cls-2" cx="1425.99" cy="950.55" r="36.5"/>
        <g>
            <path class="cls-2" d="M1701.32,258.79h-170c-1.34,0-2.42-1.08-2.42-2.42s1.08-2.42,2.42-2.42h170c1.34,0,2.42,1.08,2.42,2.42s-1.08,2.42-2.42,2.42Z"/>
            <path class="cls-2" d="M1701.32,287.45h-103.33c-1.34,0-2.42-1.08-2.42-2.42s1.08-2.42,2.42-2.42h103.33c1.34,0,2.42,1.08,2.42,2.42s-1.08,2.42-2.42,2.42Z"/>
        </g>
        <g>
            <path class="cls-2" d="M1701.32,374.04h-170c-1.34,0-2.42-1.08-2.42-2.42s1.08-2.42,2.42-2.42h170c1.34,0,2.42,1.08,2.42,2.42s-1.08,2.42-2.42,2.42Z"/>
            <path class="cls-2" d="M1701.32,402.71h-103.33c-1.34,0-2.42-1.08-2.42-2.42s1.08-2.42,2.42-2.42h103.33c1.34,0,2.42,1.08,2.42,2.42s-1.08,2.42-2.42,2.42Z"/>
        </g>
        <g>
            <path class="cls-2" d="M1701.32,489.29h-59.33c-1.34,0-2.42-1.08-2.42-2.42s1.08-2.42,2.42-2.42h59.33c1.34,0,2.42,1.08,2.42,2.42s-1.08,2.42-2.42,2.42Z"/>
            <path class="cls-2" d="M1602.99,489.29h-71.67c-1.34,0-2.42-1.08-2.42-2.42s1.08-2.42,2.42-2.42h71.67c1.34,0,2.42,1.08,2.42,2.42s-1.08,2.42-2.42,2.42Z"/>
            <path class="cls-2" d="M1701.32,517.96h-103.33c-1.34,0-2.42-1.08-2.42-2.42s1.08-2.42,2.42-2.42h103.33c1.34,0,2.42,1.08,2.42,2.42s-1.08,2.42-2.42,2.42Z"/>
        </g>
        <g>
            <path class="cls-2" d="M1701.32,604.55h-85c-1.34,0-2.42-1.08-2.42-2.42s1.08-2.42,2.42-2.42h85c1.34,0,2.42,1.08,2.42,2.42s-1.08,2.42-2.42,2.42Z"/>
            <path class="cls-2" d="M1701.32,633.21h-144.33c-1.34,0-2.42-1.08-2.42-2.42s1.08-2.42,2.42-2.42h144.33c1.34,0,2.42,1.08,2.42,2.42s-1.08,2.42-2.42,2.42Z"/>
        </g>
        <g>
            <path class="cls-2" d="M1701.32,712.8h-134.17c-1.34,0-2.42-1.08-2.42-2.42s1.08-2.42,2.42-2.42h134.17c1.34,0,2.42,1.08,2.42,2.42s-1.08,2.42-2.42,2.42Z"/>
            <path class="cls-2" d="M1701.32,741.47h-170c-1.34,0-2.42-1.08-2.42-2.42s1.08-2.42,2.42-2.42h170c1.34,0,2.42,1.08,2.42,2.42s-1.08,2.42-2.42,2.42Z"/>
        </g>
        <g>
            <path class="cls-2" d="M1701.32,827.95h-72.17c-1.34,0-2.42-1.08-2.42-2.42s1.08-2.42,2.42-2.42h72.17c1.34,0,2.42,1.08,2.42,2.42s-1.08,2.42-2.42,2.42Z"/>
            <path class="cls-2" d="M1586.66,827.95h-55.33c-1.34,0-2.42-1.08-2.42-2.42s1.08-2.42,2.42-2.42h55.33c1.34,0,2.42,1.08,2.42,2.42s-1.08,2.42-2.42,2.42Z"/>
            <path class="cls-2" d="M1701.32,856.62h-103.33c-1.34,0-2.42-1.08-2.42-2.42s1.08-2.42,2.42-2.42h103.33c1.34,0,2.42,1.08,2.42,2.42s-1.08,2.42-2.42,2.42Z"/>
        </g>
        <g>
            <path class="cls-5" d="M368.82,342.54v-76.02h16.12v62.71h30.84v13.31h-46.95Z"/>
            <path class="cls-5" d="M428.99,342.54v-76.02h16.12v76.02h-16.12Z"/>
            <path class="cls-5" d="M507.61,266.52h16.28l-25.84,76.02h-17.58l-25.79-76.02h16.28l14.3,45.24c.8,2.67,1.62,5.78,2.47,9.33,.85,3.55,1.38,6.02,1.59,7.41,.38-3.19,1.68-8.77,3.9-16.74l14.4-45.24Z"/>
            <path class="cls-5" d="M577.24,342.54h-43.78v-76.02h43.78v13.21h-27.66v16.69h25.74v13.21h-25.74v19.6h27.66v13.31Z"/>
        </g>
        <circle class="cls-1" cx="309.32" cy="304.9" r="25.4"/>
    </g>
    <circle class="cls-2" cx="850.81" cy="593.64" r="324.06"/>
    <polygon class="cls-6" points="1912.8 558.13 1919.48 570.74 1931.69 577.64 1919.48 584.54 1912.8 597.15 1906.12 584.54 1893.91 577.64 1906.12 570.74 1912.8 558.13"/>
    <polygon class="cls-6" points="65.46 888.56 72.14 901.17 84.35 908.07 72.14 914.96 65.46 927.58 58.78 914.96 46.57 908.07 58.78 901.17 65.46 888.56"/>
    <polygon class="cls-3" points="580.94 0 587.62 12.61 599.83 19.51 587.62 26.41 580.94 39.02 574.26 26.41 562.05 19.51 574.26 12.61 580.94 0"/>
    <g>
        <polygon class="cls-2" points="1209.76 265.52 1216.43 278.13 1228.65 285.03 1216.43 291.93 1209.76 304.54 1203.08 291.93 1190.87 285.03 1203.08 278.13 1209.76 265.52"/>
        <polygon class="cls-2" points="1169.76 299.5 1180.44 319.69 1199.99 330.73 1180.44 341.77 1169.76 361.96 1159.07 341.77 1139.52 330.73 1159.07 319.69 1169.76 299.5"/>
    </g>
    <g>
        <polygon class="cls-2" points="286.5 811.96 299.12 805.28 306.01 793.07 312.91 805.28 325.53 811.96 312.91 818.64 306.01 830.85 299.12 818.64 286.5 811.96"/>
        <polygon class="cls-2" points="320.49 851.96 340.67 841.27 351.71 821.73 362.75 841.27 382.94 851.96 362.75 862.65 351.71 882.2 340.67 862.65 320.49 851.96"/>
    </g>
    <g>
        <path class="cls-3" d="M520.8,511.99h0c0,14.27-11.57,25.83-25.83,25.83h0c-14.27,0-25.83-11.57-25.83-25.83h0c0-14.27,11.57-25.83,25.83-25.83h0c14.27,0,25.83,11.57,25.83,25.83Z"/>
        <path class="cls-6" d="M580.94,577.57h0c0,7.58-6.14,13.72-13.72,13.72h0c-7.58,0-13.72-6.14-13.72-13.72h0c0-7.58,6.14-13.72,13.72-13.72h0c7.58,0,13.72,6.14,13.72,13.72Z"/>
        <path class="cls-1" d="M543.97,561.49h-47c-1.38,0-2.5-1.12-2.5-2.5v-47c0-1.38,1.12-2.5,2.5-2.5h47c1.38,0,2.5,1.12,2.5,2.5v47c0,1.38-1.12,2.5-2.5,2.5Zm-44.5-5h42v-42h-42v42Z"/>
    </g>
    <path class="cls-5" d="M321.32,651.86c-1.29,0-2.49-.84-2.87-2.15-.47-1.59,.43-3.26,2.02-3.73,5.84-1.74,19.11-6.17,28.84-13.04-4.92-2.37-9.46-5.69-13.27-9.85-4.3-4.68-6.02-9.26-5.11-13.6,.8-3.85,3.74-7.22,8.28-9.49,5.64-2.82,12.54-2.87,18.03-.14,4.95,2.47,8.23,6.83,9.23,12.28,1.31,7.09-1.12,13.19-5.52,18.37,3.92,.74,7.93,.81,11.84,.14,9.87-1.69,17.56-7.88,21.65-17.45,.65-1.52,2.41-2.23,3.94-1.58,1.52,.65,2.23,2.41,1.58,3.94-4.92,11.5-14.21,18.96-26.15,21-5.95,1.02-12.09,.59-17.92-1.12-10.23,8.43-25.17,13.73-33.7,16.27-.29,.09-.57,.12-.86,.12Zm27.11-48.01c-2.24,0-4.51,.51-6.55,1.53-1.33,.67-4.5,2.52-5.09,5.35-.61,2.92,1.65,6.13,3.66,8.32,3.96,4.31,8.81,7.59,14.04,9.63,4.48-4.4,7.15-9.55,6.07-15.42-.84-4.55-3.73-6.86-6.01-8-1.87-.93-3.98-1.4-6.12-1.4Z"/>
    <path class="cls-5" d="M1347.88,767.55c-12.6,0-24.83-5.58-29.19-17.66-.86-2.38-1.41-4.93-1.65-7.6-5.25-1.95-10.5-5.73-14.88-10.83-4.77-5.56-7.82-12.16-8.36-18.12-.13-1.37,.89-2.59,2.26-2.71,1.37-.12,2.59,.89,2.71,2.26,.45,4.88,3.13,10.61,7.18,15.33,2.73,3.18,6.66,6.57,11,8.63,.11-1.86,.35-3.76,.73-5.68,1.11-5.6,3.25-9.38,6.55-11.57,3.73-2.47,8.93-2.45,12.65,.05,3.71,2.5,5.69,7.31,4.8,11.7-.54,2.69-2.09,5.27-4.47,7.46-3.89,3.58-8.45,5.24-13.54,4.95-.48-.03-.96-.07-1.44-.14,.25,1.6,.64,3.14,1.16,4.58,5.34,14.82,24.21,16.3,35.9,12.62,.4-.12,.79-.26,1.18-.4,3.33-1.19,6.28-2.81,8.77-4.8,1.08-.86,2.65-.69,3.51,.39,.86,1.08,.69,2.65-.39,3.51-2.92,2.34-6.36,4.23-10.21,5.6-.45,.16-.91,.32-1.37,.46-4.14,1.3-8.55,1.97-12.92,1.97Zm-25.99-29.06c.69,.13,1.38,.22,2.07,.26,3.69,.22,7.01-1.01,9.87-3.63,1.12-1.03,2.53-2.69,2.96-4.78,.49-2.42-.64-5.18-2.69-6.56-2.05-1.38-5.04-1.39-7.1-.03-2.13,1.41-3.57,4.15-4.4,8.37-.43,2.17-.66,4.31-.7,6.37Z"/>
    <g>
        <path class="cls-3" d="M883.89,641.82c6.76,15.99,25.21,23.48,41.2,16.72,15.99-6.76,23.48-25.21,16.72-41.2-6.76-15.99-54.74-39.7-54.74-39.7-13.4,11.04-9.94,48.18-3.18,64.18Z"/>
        <path class="cls-1" d="M691.45,707.3c-11.85,0-23.24-6.61-28.78-17.97-7.75-15.88-1.16-35.04,14.72-42.79l122.02-59.54c15.89-7.75,35.04-1.16,42.79,14.73s1.16,35.04-14.72,42.8l-122.02,59.54c-4.52,2.2-9.3,3.25-14.01,3.25Z"/>
        <path class="cls-1" d="M827.48,644.51l-6.48,3.16-55.29,26.98-60.25,29.4c-4.52,2.21-9.29,3.25-14,3.25-11.85,0-23.24-6.61-28.78-17.98-7.76-15.88-1.17-35.04,14.72-42.79l122.02-59.55c15.89-7.75,35.04-1.16,42.8,14.73,7.75,15.89,1.16,35.04-14.73,42.8Z"/>
        <path class="cls-5" d="M821,647.68l-49.11,23.96c-14.33-40.6,20.66-68.3,20.66-68.3l28.45,44.34Z"/>
        <path class="cls-5" d="M688.36,1250.95c-2.59,0-5.08-.16-7.47-.49-9.6-1.32-17.29-10.25-17.51-20.31-.13-6.26,3.3-12.46,8.75-15.77,5.02-3.06,10.81-3.22,15.89-.46,9.54,5.2,17.16,14.26,22.73,21.57,1.12,1.47,.83,3.57-.63,4.68-1.47,1.12-3.57,.83-4.68-.63-5.17-6.78-12.18-15.16-20.61-19.75-4.01-2.18-7.49-.75-9.22,.3-3.45,2.1-5.62,5.99-5.54,9.92,.14,6.75,5.41,12.96,11.74,13.83,6.26,.86,13.44,.43,21.32-1.29,1.8-.39,3.58,.75,3.98,2.55,.39,1.8-.75,3.58-2.55,3.98-5.72,1.25-11.13,1.87-16.19,1.87Z"/>
        <polygon class="cls-1" points="926.19 1209.5 978.72 1209.51 954.2 910.94 849.42 873.88 926.19 1209.5"/>
        <path class="cls-3" d="M933.49,777.1h-165.38l27.82-104.51-6.54-21.96c-5.87-19.71-3.3-41.13,7.71-58.5,.38-.6,.76-1.19,1.16-1.77,12.37-18.42,31.41-30.08,52.55-30.08,17.28,0,33.15,7.79,45.12,20.68,2.45,2.65,4.76,5.51,6.86,8.57,8.17,11.83,13.56,26.53,14.91,42.77l15.8,144.81Z"/>
        <path class="cls-5" d="M740.09,802.61c2.17-28.28,10.35-55.1,35.64-77.8,40.25,18.43,77.67,9.96,156.54-3.42l12.7,92.01-204.88-10.79Z"/>
        <path class="cls-1" d="M845.35,736.93c-24.25,0-45.54-2.29-63.7-6.88-3.58-.91-5.75-4.54-4.85-8.12s4.54-5.75,8.12-4.85c37.06,9.37,88.38,8.6,152.53-2.28,3.64-.62,7.09,1.83,7.71,5.47,.62,3.64-1.83,7.09-5.47,7.71-35.16,5.96-66.68,8.95-94.34,8.95Z"/>
        <path class="cls-5" d="M784.51,1186.58h-80.44s42.33-332.49,42.33-332.49c-2.98-13.98-12.38-48.26-10.73-57.83l131.11-40.86-82.27,431.18Z"/>
        <polygon class="cls-5" points="903.15 1193.21 992.88 1193.22 942.86 797.5 812.27 755.4 820.39 815.05 818.16 798.65 903.15 1193.21"/>
        <path class="cls-1" d="M775.66,803.29c-8.48,1.58-17.66-1.8-24.03-9.8l-85.59-90.28c-12.64-14.18-11.39-35.92,2.79-48.55,14.18-12.64,35.92-11.39,48.55,2.79l71.62,98.47c9.68,12.18,9.15,30.46-1.17,40.83-3.53,3.55-7.76,5.72-12.18,6.54Z"/>
        <path class="cls-1" d="M738.13,843.15c-3.03,0-6.07-1.14-8.41-3.42-4.78-4.65-4.88-12.29-.23-17.06l40.53-41.64c4.65-4.77,12.29-4.88,17.06-.23,4.78,4.65,4.88,12.29,.23,17.06l-40.53,41.64c-2.37,2.43-5.5,3.65-8.65,3.65Z"/>
        <path class="cls-1" d="M735.01,819.32c-2.05,0-4.12-.52-6.02-1.62-5.77-3.33-7.75-10.71-4.41-16.48l20.58-35.62c3.33-5.77,10.71-7.75,16.48-4.41,5.77,3.33,7.75,10.71,4.41,16.48l-20.58,35.62c-2.24,3.87-6.29,6.03-10.46,6.03Z"/>
        <path class="cls-5" d="M1006.75,1250.95c-5.05,0-10.47-.63-16.19-1.87-1.8-.39-2.95-2.17-2.55-3.98,.39-1.8,2.18-2.94,3.98-2.55,7.88,1.72,15.05,2.15,21.32,1.29,6.33-.87,11.6-7.08,11.74-13.83,.09-3.92-2.09-7.82-5.54-9.92-1.72-1.05-5.21-2.48-9.22-.3-8.43,4.59-15.45,12.97-20.61,19.75-1.12,1.47-3.21,1.75-4.68,.63-1.47-1.12-1.75-3.22-.63-4.68,5.57-7.31,13.19-16.37,22.73-21.57,5.08-2.77,10.87-2.6,15.89,.46,5.45,3.32,8.88,9.51,8.75,15.77-.22,10.06-7.91,18.99-17.51,20.31-2.39,.33-4.88,.49-7.47,.49Z"/>
        <path class="cls-3" d="M1051.56,1285.37l-.17,9.65h-93.3l-9.01-18.22-2.33-4.72c-1.81-3.65-7.11-3.35-8.49,.48l-8.08,22.45h-22.69l1.76-18.22,8.04-83.59,66.74,.2,20.54,44.22,40.52,33.67c1.85,1.54,3.35,3.41,4.43,5.49,1.37,2.62,2.07,5.55,2.03,8.57Z"/>
        <path class="cls-3" d="M641.36,1285.37l.17,9.65h93.3l9.01-18.22,2.33-4.72c1.8-3.65,7.11-3.35,8.49,.48l8.08,22.45h22.69l-1.76-18.22-8.04-83.59-66.74,.2-20.54,44.22-40.52,33.67c-1.85,1.54-3.35,3.41-4.43,5.49-1.37,2.62-2.07,5.55-2.03,8.57Z"/>
        <path class="cls-1" d="M779.29,1204.83h-73.56c-6.37,0-11.53-5.16-11.53-11.53s5.16-11.53,11.53-11.53h73.56c6.37,0,11.53,5.16,11.53,11.53s-5.16,11.53-11.53,11.53Z"/>
        <path class="cls-1" d="M989.9,1204.74h-79.13c-6.37,0-11.53-5.17-11.53-11.53,0-6.37,5.16-11.53,11.53-11.53h79.13c6.37,0,11.53,5.17,11.53,11.53,0,6.37-5.16,11.53-11.53,11.53Z"/>
        <path class="cls-1" d="M856.97,823.7c-.75,0-1.49-.03-2.25-.09-15.75-1.29-28.36-15.99-28.11-32.77l.41-27.3c.01-.93,.41-1.8,1.1-2.42,.68-.62,1.59-.94,2.52-.86l11,.9c1.84,.15,3.21,1.76,3.06,3.6-.15,1.84-1.78,3.21-3.6,3.06l-7.44-.61-.36,23.73c-.2,13.33,9.66,25,21.97,26.01,5.55,.45,10.86-1.35,14.97-5.08,4.59-4.17,7.17-10.15,7.27-16.86l.08-4.97c.03-1.83,1.52-3.29,3.34-3.29h.05c1.85,.03,3.32,1.55,3.29,3.39l-.08,4.97c-.13,8.45-3.58,16.36-9.46,21.7-4.94,4.48-11.17,6.88-17.76,6.88Z"/>
        <path class="cls-1" d="M871.05,498.68l-.06,13.48-.09,21.14-.03,7.25-.02,3.05v.05s-.03,6.66-.03,6.66l-.07,14.55c-.06,12.38-10.12,22.36-22.49,22.3-12.37-.06-22.34-10.14-22.29-22.49l.08-18.58,.07-15.04,.11-24.63,.04-7.95c0-1.96,.27-3.87,.75-5.67,1.73-6.54,6.36-11.9,12.41-14.65,2.01-.91,4.18-1.52,6.44-1.8,.95-.12,1.92-.18,2.89-.17,12.36,.06,22.34,10.12,22.28,22.5Z"/>
        <path class="cls-5" d="M871.05,498.68l-.06,13.48-.09,21.14-.03,7.25-.02,3.05v.05s-.03,6.66-.03,6.66c-16.01-1.67-30.61-11.87-37.14-27.81l-2.02-4.95c-1.08-2.63-1.83-5.32-2.27-8-1.88-11.55,1.98-23.24,10.05-31.41,2.01-.91,4.18-1.52,6.44-1.8,.95-.12,1.92-.18,2.89-.17,12.36,.06,22.34,10.12,22.28,22.5Z"/>
        <path class="cls-1" d="M883.99,536.74h0c14.12-5.79,20.87-21.93,15.08-36.04l-8.69-21.2c-7.63-18.6-28.89-27.5-47.5-19.87h0c-18.6,7.63-27.5,28.89-19.87,47.5l2.03,4.95c9.47,23.09,35.86,34.13,58.95,24.67Z"/>
        <path class="cls-1" d="M888.95,479.99c5.32,8.82,10.72,17.01,16.66,21.31,1.6,1.16,2.25,3.34,1.24,5.04-.63,1.06-1.77,1.84-3.21,1.87l-15.86,.4,1.18-28.62Z"/>
        <path class="cls-5" d="M849.06,511.26s-11.9-24.16,4.48-24.98c38.83-1.94,41.4-19.38,41.41-19.39,.17-.12-4.67-5.8-4.95-6.11-4.12-4.49-8.85-8.48-14.13-11.54-19.66-11.41-45.64-4.54-60.39,11.76-16.36,18.08-12.79,35.84-5.4,47.98,6.2,10.18,19.52,13.38,29.87,7.48l9.11-5.19Z"/>
        <path class="cls-5" d="M816.82,446.44c1.27-4.31,3.12-8.46,3.88-12.89,1.35-7.9-1.09-16.36-6.43-22.33-5.34-5.97-13.48-9.32-21.48-8.85-11.89,.7-21.75,9.03-30.65,16.94-7.05-9.06-16.71-16.32-27.8-19.32-16.6-4.49-43.89,2.75-41.88,24.4,.68,7.36,4.9,14.06,10.39,19,1.71,1.54,3.63,3.05,4.4,5.22,1.06,2.97-.4,6.32-2.58,8.59-2.18,2.28-5,3.81-7.49,5.74-7.04,5.46-11.3,14.34-11.14,23.25,.16,8.91,4.74,17.63,11.97,22.83,3.82,2.74,8.39,4.57,11.27,8.4,8.62,11.45,5,27.92,15.38,38.96,7.04,7.49,18.42,9.85,28.48,7.73,10.06-2.13,18.91-8.18,26.27-15.36,7.98-7.78,14.78-17.73,15.15-28.86,.32-9.63-4.59-19.27-12.57-24.66-4.34-2.94-10.11-5.56-10.62-10.78-.45-4.56,3.94-8.46,8.47-9.11,4.53-.65,9.04,1.08,13.24,2.92,11.97,5.25,23.53,11.73,36.23,14.83-1.02,.35-2.04,.71-3.07,1.06,1.04,3.47,6.34,3.97,8.94,1.46,2.6-2.52,2.92-6.62,2.22-10.18-.93-4.7-3.36-9.09-6.86-12.37-4.52-4.23-10.87-6.84-13.6-12.39-2.06-4.19-1.56-9.2-.29-13.7,.05-.18,.1-.35,.15-.53Z"/>
        <path class="cls-1" d="M824.97,504.56c1.52,9.36,10.35,15.72,19.71,14.19,9.36-1.52,15.72-10.35,14.19-19.71-1.52-9.36-10.35-15.72-19.71-14.19s-15.72,10.35-14.19,19.71Z"/>
        <path class="cls-3" d="M801.91,486.76c-.61,0-1.24-.17-1.79-.52-1.56-.99-2.02-3.06-1.03-4.61l15.62-24.55c.99-1.56,3.06-2.02,4.61-1.03,1.56,.99,2.02,3.06,1.03,4.61l-15.62,24.55c-.64,1-1.72,1.55-2.82,1.55Z"/>
        <g>
            <path class="cls-5" d="M839.25,515.2l.05,4.56-.05-4.56Z"/>
            <path class="cls-2" d="M839.3,522.15c-1.3,0-2.37-1.05-2.38-2.36l-.05-4.56c-.02-1.32,1.04-2.4,2.36-2.41,1.28-.04,2.4,1.04,2.41,2.36l.05,4.56c.02,1.32-1.04,2.4-2.36,2.41,0,0-.02,0-.03,0Z"/>
        </g>
        <path class="cls-2" d="M847.35,948.5c-1.6,0-3.01-1.15-3.29-2.78l-18.35-106.67-17.76-15.94c-1.37-1.23-1.49-3.35-.25-4.72,1.23-1.37,3.34-1.49,4.72-.25l18.63,16.72c.56,.5,.93,1.18,1.06,1.92l18.55,107.82c.31,1.82-.91,3.55-2.73,3.86-.19,.03-.38,.05-.57,.05Z"/>
        <path class="cls-5" d="M802.67,746.34c-1.41,0-2.72-.9-3.18-2.31-3.28-10.06-1.58-18.89,5.08-26.27,1.24-1.37,3.35-1.48,4.72-.24,1.37,1.24,1.48,3.35,.24,4.72-5.07,5.62-6.24,11.88-3.68,19.71,.57,1.75-.38,3.64-2.14,4.21-.34,.11-.69,.17-1.04,.17Z"/>
        <path class="cls-5" d="M882.95,747.19c-.63,0-1.27-.18-1.83-.55-1.54-1.01-1.97-3.09-.95-4.63,4.16-6.32,4.37-12.69,.66-20.05-.83-1.65-.17-3.66,1.48-4.49,1.65-.83,3.66-.17,4.49,1.48,4.76,9.44,4.41,18.44-1.04,26.73-.64,.98-1.71,1.51-2.8,1.51Z"/>
        <rect class="cls-3" x="818.24" y="554.52" width="59.56" height="32.65"/>
        <path class="cls-5" d="M1075.91,692.93c-1.11,0-2.2-.56-2.83-1.57-.98-1.56-.51-3.63,1.06-4.61,3.76-2.36,5.97-6.83,6.24-12.61,.29-6.23-1.71-13.09-5.62-19.33-3.91-6.23-9.22-11.02-14.95-13.48-5.31-2.28-10.31-2.23-14.07,.12-1.56,.98-3.63,.51-4.61-1.06-.98-1.56-.51-3.63,1.06-4.61,5.67-3.56,12.86-3.77,20.25-.61,6.97,2.99,13.36,8.69,17.98,16.07,4.62,7.38,6.98,15.61,6.63,23.18-.37,8.03-3.7,14.41-9.37,17.97-.55,.35-1.17,.51-1.77,.51Z"/>
        <path class="cls-1" d="M944.99,758.31c-11.78,0-23.12-6.53-28.7-17.81l-60-121.16c-7.84-15.84-1.36-35.04,14.48-42.88,15.84-7.84,35.04-1.36,42.88,14.48l60,121.16c7.84,15.84,1.36,35.04-14.48,42.88-4.56,2.26-9.41,3.33-14.18,3.33Z"/>
        <path class="cls-1" d="M1108.36,652.5c0,8.63-4.99,17.04-14.02,21.83l-126.85,84.47c-16.25,9.83-37.39,4.63-47.23-11.61-9.84-16.25-4.64-37.39,11.61-47.23l132.35-69.24c13.74-7.29,31.62-3.44,39.93,8.61,2.85,4.12,4.2,8.68,4.2,13.17Z"/>
        <g>
            <path class="cls-1" d="M1062.78,659.52c-3.24,0-6.48-1.3-8.86-3.87-4.53-4.89-4.24-12.52,.65-17.05l48.81-45.21c4.89-4.53,12.52-4.24,17.05,.65,4.53,4.89,4.24,12.52-.65,17.05l-48.81,45.21c-2.32,2.15-5.26,3.21-8.2,3.21Z"/>
            <path class="cls-1" d="M1075.79,661.15c-3.87,0-7.67-1.86-10-5.31-3.73-5.52-2.29-13.02,3.23-16.76l32.59-22.05c5.52-3.73,13.02-2.29,16.76,3.23,3.73,5.52,2.29,13.02-3.23,16.76l-32.59,22.05c-2.07,1.4-4.42,2.07-6.75,2.07Z"/>
            <path class="cls-1" d="M1092.1,673.79c-3.64,0-7.23-1.64-9.61-4.76-4.04-5.3-3.01-12.87,2.29-16.91l22.54-17.17c5.3-4.04,12.87-3.01,16.91,2.29,4.04,5.3,3.01,12.87-2.29,16.91l-22.54,17.17c-2.18,1.66-4.75,2.47-7.3,2.47Z"/>
        </g>
        <path class="cls-1" d="M1057.96,656.59c-.37,0-.74-.02-1.11-.05-6.64-.61-11.52-6.48-10.92-13.12l1.99-21.77c.61-6.64,6.48-11.52,13.12-10.92,6.64,.61,11.52,6.48,10.92,13.11l-1.99,21.77c-.57,6.26-5.83,10.97-12,10.97Z"/>
        <path class="cls-5" d="M1067.57,695.25c-3.25,0-6.67-.74-10.14-2.23-6.97-2.99-13.36-8.69-17.98-16.07-9.79-15.61-8.56-34.07,2.74-41.15,1.56-.98,3.63-.51,4.61,1.06,.98,1.56,.51,3.63-1.06,4.61-8.17,5.12-8.45,19.45-.62,31.94,3.91,6.23,9.22,11.02,14.95,13.48,5.31,2.28,10.31,2.23,14.07-.12,1.56-.98,3.63-.51,4.61,1.06,.98,1.56,.51,3.63-1.06,4.61-3.01,1.89-6.45,2.83-10.11,2.83Z"/>
        <path class="cls-2" d="M1046.26,667.77c-1.73,5.38-7.5,8.34-12.88,6.61-5.38-1.73-8.34-7.5-6.61-12.88,1.73-5.38,7.5-8.34,12.88-6.61,5.38,1.73,8.34,7.5,6.61,12.88Z"/>
        <path class="cls-2" d="M1055.69,681.55c-1.73,5.38-7.5,8.34-12.88,6.61-5.38-1.73-8.34-7.5-6.61-12.88,1.73-5.38,7.5-8.34,12.88-6.61,5.38,1.73,8.34,7.5,6.61,12.88Z"/>
        <path class="cls-5" d="M943.85,695.24c-1.19,0-2.34-.64-2.95-1.76-.88-1.62-.27-3.65,1.36-4.53l15.71-8.46c1.62-.88,3.65-.27,4.53,1.36,.88,1.62,.27,3.65-1.36,4.53l-15.71,8.46c-.5,.27-1.05,.4-1.58,.4Z"/>
        <polygon class="cls-1" points="827.72 648.26 801.91 622.11 825.91 596.03 843.95 622.88 827.72 648.26"/>
        <g>
            <polygon class="cls-1" points="827.72 648.26 801.91 622.11 825.91 596.03 843.95 622.88 827.72 648.26"/>
            <path class="cls-2" d="M827.72,650.65c-.63,0-1.25-.25-1.7-.71l-25.81-26.15c-.89-.91-.92-2.36-.06-3.29l24.01-26.09c.5-.54,1.21-.82,1.94-.76,.73,.06,1.39,.44,1.8,1.05l18.04,26.85c.53,.79,.54,1.82,.03,2.62l-16.23,25.39c-.39,.61-1.04,1.01-1.76,1.09-.08,0-.17,.01-.25,.01Zm-22.51-28.6l22.11,22.41,13.78-21.55-15.48-23.04-20.42,22.19Z"/>
        </g>
        <g>
            <path class="cls-5" d="M839.52,529.87l.21,17.7-.21-17.7Z"/>
            <path class="cls-2" d="M839.73,549.96c-1.3,0-2.37-1.05-2.38-2.36l-.21-17.7c-.02-1.32,1.04-2.4,2.36-2.41,0,0,.02,0,.03,0,1.3,0,2.37,1.05,2.38,2.36l.21,17.7c.02,1.32-1.04,2.4-2.36,2.41,0,0-.02,0-.03,0Z"/>
        </g>
    </g>
    <g>
        <path class="cls-1" d="M342.18,1186.7c16.67,16.9,37.23,23.65,45.91,15.08,8.68-8.57,2.21-29.21-14.46-46.11-11.53-11.69-29.08-14.43-38.8-15-4-.24-7.3,3.02-7.12,7.02,.44,9.73,2.94,27.31,14.48,39Z"/>
        <path class="cls-5" d="M409.48,1239.21c-1.13,0-2.08-.88-2.16-2.02-.03-.44-3.02-45.07-.44-104.82,2.38-55.18,10.13-134.93,33.53-201.53,.4-1.13,1.63-1.73,2.76-1.33,1.13,.4,1.72,1.63,1.33,2.76-44.46,126.55-32.98,302.85-32.86,304.61,.08,1.19-.82,2.23-2.01,2.31-.05,0-.1,0-.15,0Z"/>
        <path class="cls-5" d="M392.69,1239.21h-.03c-1.2-.01-2.16-1-2.14-2.19,1-82.01-21.92-131.3-39.24-161.24-.6-1.04-.25-2.36,.79-2.96,1.04-.6,2.36-.25,2.96,.79,17.58,30.38,40.83,80.38,39.82,163.46-.01,1.19-.98,2.14-2.17,2.14Z"/>
        <path class="cls-6" d="M441.99,982.95c-3.26,13.98-11.74,23.96-18.92,22.28-7.19-1.68-10.36-14.37-7.1-28.36,2.26-9.67,10.45-16.63,15.28-19.99,1.99-1.38,4.72-.75,5.89,1.38,2.84,5.16,7.11,15.02,4.85,24.69Z"/>
        <path class="cls-1" d="M492.92,942.98c3.5-6.5,.48-13.19-6.71-14.86h0c-7.19-1.68-15.93,2.27-19.43,8.76l-23.83,44.26c-3.11,5.78-9.71,8.76-16.11,7.27h0c-6.39-1.49-10.99-7.09-11.23-13.65l-1.77-50.24c-.26-7.37-6.35-14.78-13.54-16.46h0c-7.15,.25-12.74,6.25-12.49,13.4,0,0,2.24,66.34,2.38,67.67l.08,.62c1.46,10.83,9.42,20.15,20.69,22.78l19.37,4.52c11.28,2.63,22.55-2.2,28.65-11.27l.08,.05,33.83-62.84Z"/>
        <g>
            <path class="cls-3" d="M332.65,1032.7h0l15.4-30c3.61-7.04-.77-15.54-8.6-16.69h0c-7.83-1.14-14.46,5.76-13,13.54l6.2,33.15Z"/>
            <path class="cls-3" d="M319.42,1042.57h0l-33.15,6.2c-7.78,1.46-14.68-5.17-13.54-13h0c1.14-7.83,9.65-12.22,16.69-8.6l30,15.4Z"/>
            <path class="cls-3" d="M328.87,1055.24h0l-15.4,30c-3.61,7.04,.77,15.55,8.6,16.69h0c7.83,1.14,14.46-5.76,13-13.54l-6.2-33.15Z"/>
            <path class="cls-3" d="M342.1,1045.37h0l33.15-6.2c7.78-1.46,14.68,5.17,13.54,13h0c-1.14,7.83-9.65,12.22-16.69,8.6l-30-15.4Z"/>
            <path class="cls-3" d="M324.13,1034.67h0l-10.33-32.1c-2.42-7.53-11.54-10.45-17.88-5.72h0c-6.34,4.73-6.15,14.3,.38,18.77l27.83,19.05Z"/>
            <path class="cls-3" d="M321.75,1051h0l-19.05,27.83c-4.47,6.53-14.04,6.72-18.77,.38h0c-4.73-6.34-1.82-15.46,5.72-17.88l32.1-10.33Z"/>
            <path class="cls-3" d="M337.39,1053.28h0l10.33,32.1c2.42,7.53,11.54,10.45,17.88,5.72h0c6.34-4.73,6.15-14.3-.38-18.77l-27.83-19.05Z"/>
            <path class="cls-3" d="M339.77,1036.94h0l19.05-27.83c4.47-6.53,14.04-6.72,18.77-.38h0c4.73,6.34,1.82,15.46-5.72,17.88l-32.1,10.33Z"/>
        </g>
    </g>
    <g>
        <path class="cls-3" d="M1592.84,1101.57c24.22,13.58,38.2,34.68,31.23,47.12-6.98,12.45-32.27,11.53-56.49-2.05-16.76-9.39-25.27-28.34-28.93-39.13-1.5-4.44,1.15-9.17,5.72-10.2,11.11-2.51,31.72-5.13,48.48,4.26Z"/>
        <path class="cls-3" d="M1690.74,1109.13c-13.68,13.86-30.54,19.4-37.66,12.37-7.12-7.03-1.81-23.96,11.87-37.83,9.46-9.59,23.86-11.83,31.83-12.31,3.28-.19,5.99,2.48,5.84,5.76-.36,7.98-2.41,22.41-11.88,32Z"/>
        <path class="cls-5" d="M1633.86,1238.69c-1.2,0-2.17-.97-2.17-2.17,0-54.34-8.46-111.44-25.15-169.7-.33-1.15,.34-2.35,1.49-2.68,1.16-.33,2.35,.34,2.68,1.49,16.8,58.65,25.32,116.15,25.32,170.9,0,1.2-.97,2.17-2.17,2.17Z"/>
        <path class="cls-5" d="M1602.33,1047.59c-.92,0-1.77-.59-2.07-1.51-20.39-63.88-43.53-105.68-43.76-106.09-.58-1.05-.21-2.37,.84-2.95,1.04-.58,2.37-.21,2.95,.84,.23,.42,23.59,42.6,44.1,106.89,.37,1.14-.27,2.36-1.41,2.73-.22,.07-.44,.1-.66,.1Z"/>
        <circle class="cls-1" cx="1569.32" cy="969.96" r="46.99" transform="translate(503.71 2475.98) rotate(-86.44)"/>
        <path class="cls-5" d="M1643.87,1238.69c-1.18,0-2.14-.94-2.17-2.13-.03-1.46-2.47-146.84,34.26-251.36,.4-1.13,1.64-1.73,2.77-1.33,1.13,.4,1.73,1.64,1.33,2.77-36.46,103.78-34.04,248.39-34.01,249.84,.02,1.2-.93,2.19-2.13,2.21-.01,0-.03,0-.04,0Z"/>
        <polygon class="cls-6" points="1718.17 995.89 1684.95 962.67 1639.56 974.83 1627.4 1020.21 1660.62 1053.44 1706.01 1041.28 1718.17 995.89"/>
        <path class="cls-2" d="M1569.32,975.41c-24.24,0-50-5.8-50-16.54,0-1.01,.82-1.83,1.83-1.83s1.83,.82,1.83,1.83c0,6.09,19.04,12.89,46.35,12.89s46.35-6.79,46.35-12.89c0-1.01,.82-1.83,1.83-1.83s1.83,.82,1.83,1.83c0,10.74-25.76,16.54-50,16.54Z"/>
        <path class="cls-2" d="M1569.32,975.41c-24.24,0-50-5.8-50-16.54,0-1.01,.82-1.83,1.83-1.83s1.83,.82,1.83,1.83c0,6.09,19.04,12.89,46.35,12.89s46.35-6.79,46.35-12.89c0-1.01,.82-1.83,1.83-1.83s1.83,.82,1.83,1.83c0,10.74-25.76,16.54-50,16.54Z"/>
        <path class="cls-2" d="M1608.25,987.94c-10.59,0-27.18-6.35-41.74-14.75-21-12.11-40.41-30-35.05-39.31,.5-.88,1.62-1.17,2.49-.67,.87,.5,1.17,1.62,.67,2.49-3.04,5.28,10.05,20.67,33.71,34.32,23.66,13.65,43.54,17.28,46.59,11.99,.5-.87,1.62-1.17,2.5-.67,.87,.5,1.17,1.62,.67,2.5-1.65,2.85-5.16,4.09-9.84,4.09Z"/>
        <path class="cls-2" d="M1608.25,987.94c-10.59,0-27.18-6.35-41.74-14.75-21-12.11-40.41-30-35.05-39.31,.5-.88,1.62-1.17,2.49-.67,.87,.5,1.17,1.62,.67,2.49-3.04,5.28,10.05,20.67,33.71,34.32,23.66,13.65,43.54,17.28,46.59,11.99,.5-.87,1.62-1.17,2.5-.67,.87,.5,1.17,1.62,.67,2.5-1.65,2.85-5.16,4.09-9.84,4.09Z"/>
        <path class="cls-2" d="M1627.4,1022.04c-.81,0-1.54-.54-1.76-1.35-.26-.97,.32-1.98,1.29-2.24l90.77-24.32c.97-.26,1.98,.32,2.24,1.29,.26,.97-.32,1.98-1.29,2.24l-90.77,24.32c-.16,.04-.32,.06-.47,.06Z"/>
        <path class="cls-2" d="M1672.78,1009.88c-.47,0-.93-.18-1.29-.53l-33.23-33.23c-.71-.71-.71-1.87,0-2.58,.71-.71,1.87-.71,2.58,0l33.23,33.23c.71,.71,.71,1.87,0,2.58-.36,.36-.82,.53-1.29,.53Z"/>
    </g>
</svg>